<?xml version="1.0" encoding="UTF-8"?>
<svg fill="none" viewBox="0 0 20 20" xmlns="http://www.w3.org/2000/svg">
<path d="m15.415 8.6196l-4.889-7.6363c-0.0565-0.088306-0.1344-0.16097-0.2264-0.2113-0.0919-0.05033-0.1951-0.07671-0.3-0.07671-0.10482 0-0.20799 0.02638-0.29997 0.07671-0.09199 0.05033-0.16983 0.12299-0.22637 0.2113l-4.8891 7.6364c-0.8476 1.1498-1.3031 2.5417-1.2994 3.9701 0 3.7026 3.0122 6.7149 6.7148 6.7149 3.7027 0 6.7149-3.0123 6.7149-6.7149 0.0038-1.4285-0.4518-2.8204-1.2995-3.9702zm-5.4154 9.4351c-3.0132 0-5.4648-2.4515-5.4648-5.4649-0.0032-1.1682 0.37114-2.3062 1.0672-3.2444 0.00831-0.01125 0.01622-0.02276 0.02375-0.03453l4.3738-6.8314 4.3737 6.8314c0.0075 0.01179 0.0155 0.02331 0.0238 0.03453 0.6961 0.93818 1.0705 2.0762 1.0674 3.2444 0 3.0133-2.4516 5.4649-5.4649 5.4649z" fill="#8D8D8D"/>
</svg>
