<?xml version="1.0" encoding="UTF-8"?>
<svg viewBox="0 0 20 20" xmlns="http://www.w3.org/2000/svg">
<path d="m16.875 15.991l-1.25-1.25v-1.6163h-1.25v2.1337l1.6163 1.6163 0.8837-0.8837z" fill="#8D8D8D"/>
<path d="m15 19.375c-0.8653 0-1.7112-0.2566-2.4306-0.7373-0.7195-0.4807-1.2802-1.164-1.6114-1.9635-0.3311-0.7994-0.4177-1.6791-0.2489-2.5277 0.1688-0.8487 0.5855-1.6282 1.1973-2.2401 0.6119-0.6118 1.3914-1.0285 2.2401-1.1973 0.8486-0.1688 1.7283-0.0822 2.5277 0.2489 0.7995 0.3312 1.4828 0.8919 1.9635 1.6114 0.4807 0.7194 0.7373 1.5653 0.7373 2.4306-0.0013 1.1599-0.4627 2.2719-1.2829 3.0921s-1.9322 1.2816-3.0921 1.2829zm0-7.5c-0.6181 0-1.2223 0.1833-1.7362 0.5267-0.5139 0.3433-0.9144 0.8314-1.1509 1.4024s-0.2984 1.1994-0.1779 1.8056c0.1206 0.6062 0.4183 1.163 0.8553 1.6s0.9939 0.7347 1.6 0.8553c0.6062 0.1205 1.2346 0.0586 1.8056-0.1779s1.0591-0.637 1.4024-1.1509c0.3434-0.5139 0.5267-1.1181 0.5267-1.7362-8e-4 -0.8285-0.3303-1.6229-0.9162-2.2088s-1.3803-0.9154-2.2088-0.9162z" fill="#8D8D8D"/>
<path d="m10 17.5c-1.9885-0.0022-3.8949-0.793-5.3009-2.1991-1.406-1.406-2.1969-3.3124-2.1991-5.3009h-1.25c0.00265 2.3198 0.92537 4.5439 2.5657 6.1843 1.6404 1.6403 3.8644 2.5631 6.1843 2.5657v-1.25z" fill="#8D8D8D"/>
<path d="m7.5 5h-3.0762c1.0114-1.1324 2.343-1.9306 3.8184-2.289 1.4754-0.35836 3.0249-0.25988 4.443 0.28237 1.4181 0.54226 2.638 1.5027 3.4979 2.754 0.8598 1.2513 1.3192 2.7344 1.317 4.2526h1.25c0.0028-1.7395-0.5139-3.4402-1.4837-4.8843-0.9697-1.4441-2.3486-2.5658-3.9598-3.2214-1.6112-0.65563-3.3815-0.81534-5.084-0.45867-1.7026 0.35667-3.2599 1.2135-4.4725 2.4607v-2.6462h-1.25v5h5v-1.25z" fill="#8D8D8D"/>
</svg>
