<svg id="Capa_1" data-name="Capa 1" xmlns="http://www.w3.org/2000/svg" xmlns:xlink="http://www.w3.org/1999/xlink" viewBox="0 0 257 287"><defs><style>.cls-1{fill:none;}.cls-2,.cls-5{fill:#ecac4a;fill-rule:evenodd;}.cls-2{isolation:isolate;}.cls-2,.cls-4{opacity:0.25;}.cls-3{clip-path:url(#clip-path);}</style><clipPath id="clip-path"><rect class="cls-1" x="171" y="31" width="62.36" height="11"/></clipPath></defs><path class="cls-2" d="M231.5,249a1.5,1.5,0,0,1-.83-.25,1.55,1.55,0,0,1-.56-.68,1.49,1.49,0,0,1-.08-.86,1.49,1.49,0,0,1,1.18-1.18,1.49,1.49,0,0,1,.86.08,1.55,1.55,0,0,1,.68.56A1.5,1.5,0,0,1,231.5,249Zm0-20a1.5,1.5,0,0,1-.83-.25,1.55,1.55,0,0,1-.56-.68,1.49,1.49,0,0,1-.08-.86,1.49,1.49,0,0,1,1.18-1.18,1.49,1.49,0,0,1,.86.08,1.55,1.55,0,0,1,.68.56A1.5,1.5,0,0,1,231.5,229Zm0-20a1.5,1.5,0,0,1-.83-.25,1.55,1.55,0,0,1-.56-.68,1.49,1.49,0,0,1-.08-.86,1.49,1.49,0,0,1,1.18-1.18,1.49,1.49,0,0,1,.86.08,1.55,1.55,0,0,1,.68.56A1.5,1.5,0,0,1,231.5,209ZM219,249a1.5,1.5,0,0,1-.83-.25,1.55,1.55,0,0,1-.56-.68,1.49,1.49,0,0,1-.08-.86,1.49,1.49,0,0,1,1.18-1.18,1.49,1.49,0,0,1,.86.08,1.55,1.55,0,0,1,.68.56A1.5,1.5,0,0,1,219,249Zm0-20a1.5,1.5,0,0,1-.83-.25,1.55,1.55,0,0,1-.56-.68,1.49,1.49,0,0,1-.08-.86,1.49,1.49,0,0,1,1.18-1.18,1.49,1.49,0,0,1,.86.08,1.55,1.55,0,0,1,.68.56A1.5,1.5,0,0,1,219,229Zm0-20a1.5,1.5,0,0,1-.83-.25,1.55,1.55,0,0,1-.56-.68,1.49,1.49,0,0,1-.08-.86,1.49,1.49,0,0,1,1.18-1.18,1.49,1.49,0,0,1,.86.08,1.55,1.55,0,0,1,.68.56A1.5,1.5,0,0,1,219,209Zm-12.5,40a1.5,1.5,0,0,1-.83-.25,1.55,1.55,0,0,1-.56-.68,1.49,1.49,0,0,1-.08-.86,1.49,1.49,0,0,1,1.18-1.18,1.49,1.49,0,0,1,.86.08,1.55,1.55,0,0,1,.68.56A1.5,1.5,0,0,1,206.5,249Zm0-20a1.5,1.5,0,0,1-.83-.25,1.55,1.55,0,0,1-.56-.68,1.49,1.49,0,0,1-.08-.86,1.49,1.49,0,0,1,1.18-1.18,1.49,1.49,0,0,1,.86.08,1.55,1.55,0,0,1,.68.56A1.5,1.5,0,0,1,206.5,229Zm0-20a1.5,1.5,0,0,1-.83-.25,1.55,1.55,0,0,1-.56-.68,1.49,1.49,0,0,1-.08-.86,1.49,1.49,0,0,1,1.18-1.18,1.49,1.49,0,0,1,.86.08,1.55,1.55,0,0,1,.68.56A1.5,1.5,0,0,1,206.5,209ZM194,249a1.5,1.5,0,0,1-.83-.25,1.55,1.55,0,0,1-.56-.68,1.49,1.49,0,0,1-.08-.86,1.49,1.49,0,0,1,1.18-1.18,1.49,1.49,0,0,1,.86.08,1.55,1.55,0,0,1,.68.56A1.5,1.5,0,0,1,194,249Zm0-20a1.5,1.5,0,0,1-.83-.25,1.55,1.55,0,0,1-.56-.68,1.49,1.49,0,0,1-.08-.86,1.49,1.49,0,0,1,1.18-1.18,1.49,1.49,0,0,1,.86.08,1.55,1.55,0,0,1,.68.56A1.5,1.5,0,0,1,194,229Zm0-20a1.5,1.5,0,0,1-.83-.25,1.55,1.55,0,0,1-.56-.68,1.49,1.49,0,0,1-.08-.86,1.49,1.49,0,0,1,1.18-1.18,1.49,1.49,0,0,1,.86.08,1.55,1.55,0,0,1,.68.56A1.5,1.5,0,0,1,194,209Zm-12.5,40a1.5,1.5,0,0,1-.83-.25,1.55,1.55,0,0,1-.56-.68,1.49,1.49,0,0,1-.08-.86,1.49,1.49,0,0,1,1.18-1.18,1.49,1.49,0,0,1,.86.08,1.55,1.55,0,0,1,.68.56A1.5,1.5,0,0,1,181.5,249Zm0-20a1.5,1.5,0,0,1-.83-.25,1.55,1.55,0,0,1-.56-.68,1.49,1.49,0,0,1-.08-.86,1.49,1.49,0,0,1,1.18-1.18,1.49,1.49,0,0,1,.86.08,1.55,1.55,0,0,1,.68.56A1.5,1.5,0,0,1,181.5,229Zm0-20a1.5,1.5,0,0,1-.83-.25,1.55,1.55,0,0,1-.56-.68,1.49,1.49,0,0,1-.08-.86,1.49,1.49,0,0,1,1.18-1.18,1.49,1.49,0,0,1,.86.08,1.55,1.55,0,0,1,.68.56A1.5,1.5,0,0,1,181.5,209Z"/><g class="cls-3"><g class="cls-4"><path class="cls-5" d="M225,31l8.36,5.5L225,42Z"/><path class="cls-5" d="M211.5,31l8.36,5.5L211.5,42Z"/><path class="cls-5" d="M198,31l8.36,5.5L198,42Z"/><path class="cls-5" d="M184.5,31l8.36,5.5L184.5,42Z"/><path class="cls-5" d="M171,31l8.36,5.5L171,42Z"/></g></g></svg>